<?xml version="1.0" encoding="UTF-8" standalone="no"?>
<!-- Created with Inkscape (http://www.inkscape.org/) -->

<svg
   width="210mm"
   height="297mm"
   viewBox="0 0 210 297"
   version="1.1"
   id="svg5"
   xml:space="preserve"
   inkscape:export-filename="main-image.png"
   inkscape:export-xdpi="96"
   inkscape:export-ydpi="96"
   inkscape:version="1.2 (1:1.2.1+202207142221+cd75a1ee6d)"
   sodipodi:docname="main-image.svg"
   xmlns:inkscape="http://www.inkscape.org/namespaces/inkscape"
   xmlns:sodipodi="http://sodipodi.sourceforge.net/DTD/sodipodi-0.dtd"
   xmlns="http://www.w3.org/2000/svg"
   xmlns:svg="http://www.w3.org/2000/svg"><sodipodi:namedview
     id="namedview7"
     pagecolor="#505050"
     bordercolor="#eeeeee"
     borderopacity="1"
     inkscape:showpageshadow="0"
     inkscape:pageopacity="0"
     inkscape:pagecheckerboard="0"
     inkscape:deskcolor="#505050"
     inkscape:document-units="mm"
     showgrid="false"
     inkscape:zoom="0.69931958"
     inkscape:cx="125.12162"
     inkscape:cy="484.75691"
     inkscape:window-width="1920"
     inkscape:window-height="951"
     inkscape:window-x="0"
     inkscape:window-y="27"
     inkscape:window-maximized="1"
     inkscape:current-layer="layer1" /><defs
     id="defs2" /><g
     inkscape:label="Camada 1"
     inkscape:groupmode="layer"
     id="layer1"><g
       id="g1694"
       transform="matrix(0.70472443,0,0,0.70472443,10.620901,29.297111)"><path
         d="m 224.65194,148.39592 c 0.19901,1.55927 0.93081,2.98586 1.71151,4.36008 0.0258,0.0468 0.0524,0.0929 0.0796,0.13966 h 8.11407 c 0.1641,-0.0426 0.32609,-0.0894 0.4874,-0.13966 a 8.8701323,8.8701323 0 0 0 2.562,-1.2604 c 2.98516,-2.15072 4.13385,-6.21473 3.615,-9.85628 -0.32261,-2.26243 -1.31555,-4.57236 -3.2491,-5.79087 a 4.8781996,4.8781996 0 0 0 -3.50747,-0.61448 c -0.0308,0.006 -0.0615,0.0126 -0.0929,0.0189 a 3.6194021,3.6194021 0 0 0 -2.42446,1.7045 c -0.92172,1.63748 -0.37287,3.66599 0.0803,5.48852 0.4518,1.82253 0.69691,4.00396 -0.61448,5.34816 a 3.3453731,3.3453731 0 0 0 -3.89014,-4.34822 c -0.095,0.0202 -0.18855,0.0433 -0.28072,0.0712 a 3.1143257,3.1143257 0 0 0 -0.64032,0.26815 c -1.54668,0.86376 -2.17305,2.85317 -1.9503,4.61075 z"
         fill="#f2f2f2"
         id="path1188"
         style="stroke-width:0.264583" /><path
         d="m 229.4631,152.756 c -0.22482,0.0524 -0.45037,0.0985 -0.67731,0.13966 h 1.22687 c 0.16063,-0.0433 0.32054,-0.0894 0.47901,-0.13966 q 0.5227,-0.1634 1.02929,-0.37498 a 9.23399,9.23399 0 0 0 3.54659,-2.55711 7.2182645,7.2182645 0 0 0 1.11866,-1.82741 8.299561,8.299561 0 0 0 0.57256,-2.33856 16.63116,16.63116 0 0 0 -0.32958,-4.9599 20.7006,20.7006 0 0 0 -1.61723,-4.85098 q -0.13303,-0.27757 -0.27512,-0.55165 a 0.10764308,0.10764308 0 0 0 -0.0719,-0.0615 0.12411075,0.12411075 0 0 0 -0.0929,0.0189 0.14707394,0.14707394 0 0 0 -0.058,0.19413 20.46238,20.46238 0 0 1 1.71639,4.67571 17.997471,17.997471 0 0 1 0.51045,4.86704 7.7656795,7.7656795 0 0 1 -1.36725,4.26023 8.5952011,8.5952011 0 0 1 -3.2177,2.64021 11.8101,11.8101 0 0 1 -2.49289,0.86587 z"
         fill="#ffffff"
         id="path1190"
         style="stroke-width:0.264583" /><path
         d="m 226.77052,152.89566 h 0.36172 c 0.0405,-0.0461 0.0796,-0.0929 0.11801,-0.13966 a 7.7098577,7.7098577 0 0 0 1.62282,-3.46767 7.5229296,7.5229296 0 0 0 -0.6487,-4.682 7.698052,7.698052 0 0 0 -0.70108,-1.16055 c -0.095,0.0202 -0.18855,0.0433 -0.28073,0.0712 a 7.4056874,7.4056874 0 0 1 1.38051,3.16602 7.3386208,7.3386208 0 0 1 -1.72757,6.07298 c -0.0405,0.0468 -0.0824,0.0936 -0.12498,0.13965 z"
         fill="#ffffff"
         id="path1192"
         style="stroke-width:0.264583" /><path
         d="m 151.51592,112.5941 h -25.39498 l -0.26922,-7.80803 a 2.3440919,2.3440919 0 0 1 2.62755,-2.40735 l 14.77817,1.80958 h 0.002 a 8.2789738,8.2789738 0 0 1 8.25667,8.27352 z"
         fill="#3fba84"
         id="path1194"
         style="stroke-width:0.264583" /><path
         d="m 140.19732,84.897733 h -17.71177 a 1.793113,1.793113 0 0 0 -1.79359,1.7936 v 17.711757 a 1.7931156,1.7931156 0 0 0 1.79359,1.7936 h 17.71177 a 1.7931183,1.7931183 0 0 0 1.79361,-1.7936 V 86.691333 a 1.7931156,1.7931156 0 0 0 -1.79361,-1.7936 z"
         fill="#cccccc"
         id="path1196"
         style="stroke-width:0.264583" /><path
         d="m 136.20836,98.141923 -8.36249,1.62849 a 1.907831,1.907831 0 0 1 -2.23483,-1.50629 l -0.64282,-3.30099 a 1.9078284,1.9078284 0 0 1 1.50629,-2.23483 l 8.36249,-1.62848 a 1.9078284,1.9078284 0 0 1 2.23483,1.50629 l 0.64282,3.30098 a 1.9078257,1.9078257 0 0 1 -1.50629,2.23483 z"
         fill="#3f3d56"
         id="path1198"
         style="stroke-width:0.264583" /><path
         d="m 134.53528,94.242123 -6.3819,1.2428 a 0.44840275,0.44840275 0 0 1 -0.17142,-0.88027 l 6.38191,-1.2428 a 0.44840196,0.44840196 0 0 1 0.17141,0.88027 z"
         fill="#ffffff"
         id="path1200"
         style="stroke-width:0.264583" /><path
         d="m 133.29481,96.082573 -3.30099,0.64282 a 0.44840275,0.44840275 0 0 1 -0.17142,-0.88027 l 3.30099,-0.64282 a 0.44840275,0.44840275 0 1 1 0.17142,0.88027 z"
         fill="#ffffff"
         id="path1202"
         style="stroke-width:0.264583" /><path
         d="m 141.99092,86.691333 v 2.35409 h -21.29896 v -2.35409 a 1.793113,1.793113 0 0 1 1.79359,-1.7936 h 17.71177 a 1.7931156,1.7931156 0 0 1 1.7936,1.7936 z"
         fill="#b3b3b3"
         id="path1204"
         style="stroke-width:0.264583" /><path
         d="m 184.52289,89.782623 a 2.8423314,2.8423314 0 0 0 -4.0199,-1.68402 l -24.36721,-8.74256 -1.07324,6.08734 24.28965,6.67951 a 2.8577407,2.8577407 0 0 0 5.1707,-2.34027 z"
         fill="#ffb8b8"
         id="path1206"
         style="stroke-width:0.264583" /><path
         d="m 184.52289,89.782623 a 2.8423314,2.8423314 0 0 0 -4.0199,-1.68402 l -24.36721,-8.74256 -1.07324,6.08734 24.28965,6.67951 a 2.8577407,2.8577407 0 0 0 5.1707,-2.34027 z"
         opacity="0.2"
         id="path1208"
         style="stroke-width:0.264583" /><path
         d="m 160.46083,80.465273 -2.30101,6.01139 a 1.2744662,1.2744662 0 0 1 -1.81527,0.65506 l -5.5923,-3.14755 a 3.5394291,3.5394291 0 0 1 2.54991,-6.60362 l 6.24475,1.385 a 1.2744609,1.2744609 0 0 1 0.91392,1.69972 z"
         fill="#3fba84"
         id="path1210"
         style="stroke-width:0.264583" /><path
         d="m 186.44092,95.348783 -8.73125,3.96874 1.14633,4.315617 a 67.134176,67.134176 0 0 1 1.73031,25.57194 v 0 l 6.38378,1.33328 5.29166,-13.49375 -1.85208,-15.34584 z"
         fill="#3fba84"
         id="path1212"
         style="stroke-width:0.264583" /><path
         d="m 203.57269,115.32482 c -5.73673,0 -10.41177,4.17036 -10.63863,9.3927 h 21.27726 c -0.22687,-5.22235 -4.90191,-9.3927 -10.63863,-9.3927 z"
         fill="#3f3d56"
         id="path1214"
         style="stroke-width:0.264583" /><path
         d="m 199.10694,116.22481 c -0.29856,-23.573947 -13.72436,-21.405197 -13.72436,-21.405197 0,0 0.25115,7.337767 0.37181,7.565977 8.55542,16.18709 -5.56426,35.16413 -23.53733,31.67296 q -0.5083,-0.0987 -0.97668,-0.20032 a 9.1496355,9.1496355 0 0 1 -7.18696,-10.256 c 1.77048,-14.21755 -7.03543,-13.96596 -7.03543,-13.96596 h -12.87634 l -6.6869,-6.01818 a 1.9438673,1.9438673 0 0 0 -3.12438,0.77283 l -0.86029,2.33495 c 0,0 -12.7,1.32292 -11.64166,13.75833 h 3.92637 a 7.9287263,7.9287263 0 0 0 0.0424,1.05834 l 29.30284,-0.23824 c 1.71764,-0.014 3.23381,1.37786 3.24089,3.09554 a 3.109669,3.109669 0 0 1 -3.21322,3.12101 l -4.72426,-0.15748 c -1.4552,6.48229 2.11667,10.84792 6.05235,13.59297 a 21.999681,21.999681 0 0 0 12.59884,3.86953 h 12.83423 c 16.66875,0 19.57917,-14.02292 19.57917,-14.02292 8.73124,-3.70418 7.63893,-14.57814 7.63893,-14.57814 z"
         fill="#3f3d56"
         id="path1216"
         style="stroke-width:0.264583" /><circle
         cx="202.77895"
         cy="137.61597"
         r="14.882812"
         fill="#3f3d56"
         id="circle1218"
         style="stroke-width:0.264583" /><circle
         cx="202.77895"
         cy="137.61597"
         r="3.647747"
         fill="#ffffff"
         id="circle1220"
         style="stroke-width:0.264583" /><circle
         cx="127.63725"
         cy="135.367"
         r="17.131771"
         fill="#3f3d56"
         id="circle1222"
         style="stroke-width:0.264583" /><circle
         cx="127.63725"
         cy="135.367"
         r="4.1989641"
         fill="#ffffff"
         id="circle1224"
         style="stroke-width:0.264583" /><path
         d="m 177.73447,100.49019 -3.14153,-8.532677 a 3.6085012,3.6085012 0 0 1 2.13966,-4.63305 l 9.00641,-3.31556 a 6.3493676,6.3493676 0 0 1 8.15234,3.76424 6.3089657,6.3089657 0 0 1 0.39185,2.19405 6.3999268,6.3999268 0 0 1 -2.37802,4.95565 6.3006393,6.3006393 0 0 1 -1.77805,1.00252 z"
         fill="#3f3d56"
         id="path1226"
         style="stroke-width:0.264583" /><path
         d="m 194.15091,89.967143 a 6.2307734,6.2307734 0 0 1 -2.32841,4.85246 7.9343963,7.9343963 0 0 1 -5.21222,-10.92729 6.2190814,6.2190814 0 0 1 7.54063,6.07483 z"
         fill="#3fba84"
         id="path1228"
         style="stroke-width:0.264583" /><ellipse
         cx="114.07737"
         cy="117.70605"
         rx="3.7041667"
         ry="4.4979167"
         fill="#3fba84"
         id="ellipse1230"
         style="stroke-width:0.264583" /><polygon
         points="462.331,292.005 468.164,260.208 450.069,260.209 450.071,292.005 "
         fill="#ffb8b8"
         id="polygon1232"
         transform="matrix(0.26458333,0,0,0.26458333,43.960207,56.367963)" /><path
         d="m 162.21404,132.56862 6.38805,-2.6e-4 h 2.6e-4 a 4.0708923,4.0708923 0 0 1 4.07101,4.07094 v 0.13229 l -10.45912,2.6e-4 z"
         fill="#2f2e41"
         id="path1234"
         style="stroke-width:0.264583" /><path
         d="m 166.80661,130.17469 q -0.0567,0 -0.11382,-0.005 l -4.48907,-0.32686 a 1.1906038,1.1906038 0 0 1 -1.00788,-1.59525 l 6.00777,-13.49762 a 0.92554424,0.92554424 0 0 0 -0.0519,-0.74052 0.91303474,0.91303474 0 0 0 -0.58504,-0.46561 c -2.82503,-0.73845 -10.07322,-2.70474 -16.34765,-5.00539 -2.68814,-0.98572 -4.38119,-2.41019 -5.03206,-4.23385 -0.85808,-2.40424 0.41135,-4.596867 0.4658,-4.688857 l 0.0426,-0.0721 5.9041,0.536657 6.40058,0.54441 14.02647,7.52151 a 5.3144208,5.3144208 0 0 1 2.33325,6.82206 l -6.46666,14.50119 a 1.1898021,1.1898021 0 0 1 -1.08643,0.70564 z"
         fill="#2f2e41"
         id="path1236"
         style="stroke-width:0.264583" /><circle
         cx="152.62598"
         cy="66.877266"
         r="6.4984388"
         fill="#ffb8b8"
         id="circle1238"
         style="stroke-width:0.264583" /><polygon
         points="455.331,295.005 461.164,263.208 443.069,263.209 443.071,295.005 "
         fill="#ffb8b8"
         id="polygon1240"
         transform="matrix(0.26458333,0,0,0.26458333,43.960207,56.367963)" /><path
         d="m 160.36196,133.36237 6.38805,-2.6e-4 h 2.6e-4 a 4.0708923,4.0708923 0 0 1 4.07101,4.07094 v 0.13229 l -10.45912,2.6e-4 z"
         fill="#2f2e41"
         id="path1242"
         style="stroke-width:0.264583" /><path
         d="m 164.95452,130.96844 q -0.0567,0 -0.11381,-0.005 l -4.48907,-0.32686 a 1.1906038,1.1906038 0 0 1 -1.00788,-1.59525 l 6.00777,-13.49762 a 0.92554424,0.92554424 0 0 0 -0.0519,-0.74052 0.91303474,0.91303474 0 0 0 -0.58504,-0.46561 c -2.82502,-0.73845 -10.07321,-2.70474 -16.34764,-5.00539 -2.68815,-0.98572 -4.3812,-2.41019 -5.03206,-4.23385 -0.85809,-2.40424 0.41134,-4.59687 0.4658,-4.68886 l 0.0426,-0.0721 5.90409,0.53666 6.40058,0.54441 14.02647,7.52151 a 5.3144208,5.3144208 0 0 1 2.33326,6.82206 l -6.46666,14.50119 a 1.1898021,1.1898021 0 0 1 -1.08644,0.70564 z"
         fill="#2f2e41"
         id="path1244"
         style="stroke-width:0.264583" /><path
         d="m 154.63015,77.060613 -6.87916,-2.38125 c 0,0 -4.31853,3.31787 -2.24393,11.54868 a 20.376115,20.376115 0 0 1 -0.89961,12.78473 13.170614,13.170614 0 0 1 -0.69291,1.463457 c 0,0 7.67291,9.26042 14.81666,2.38125 l -2.77812,-13.361457 c 0,0 4.36562,-8.86354 -1.32293,-12.43541 z"
         fill="#3fba84"
         id="path1246"
         style="stroke-width:0.264583" /><path
         d="m 153.43281,73.596723 c -0.92488,-1.38438 -1.65479,-3.304 -0.63649,-4.62119 1.00517,-1.30021 2.98771,-1.10865 4.52716,-1.68398 2.14419,-0.80134 3.38775,-3.32034 2.99991,-5.57627 -0.38784,-2.25592 -2.19877,-4.12602 -4.35611,-4.8912 -2.15734,-0.76519 -4.5901,-0.51633 -6.70272,0.36482 -2.60067,1.08471 -4.8316,3.18301 -5.76709,5.84101 -0.93549,2.658 -0.4354,5.84943 1.50529,7.89242 2.08064,2.19031 5.34606,2.77404 8.36686,2.73862"
         fill="#2f2e41"
         id="path1248"
         style="stroke-width:0.264583" /><path
         d="m 147.38791,61.787683 c -1.16545,0.94876 -2.94356,0.52736 -4.1946,-0.30529 -1.25104,-0.83266 -2.26617,-2.01831 -3.61976,-2.67115 -2.38634,-1.15092 -5.27151,-0.38583 -7.594,0.88903 -2.32249,1.27485 -4.38128,3.03609 -6.83451,4.03652 -2.45324,1.00044 -5.58375,1.04989 -7.44137,-0.83915 a 6.8082582,6.8082582 0 0 0 9.97747,8.03578 c 2.688,-1.63735 4.17275,-5.0704 7.18765,-5.97412 1.66833,-0.50008 3.45977,-0.0973 5.14592,0.33895 1.68615,0.43625 3.4443,0.90763 5.14591,0.53624 1.70162,-0.37138 3.29327,-1.90053 3.07679,-3.62869 z"
         fill="#2f2e41"
         id="path1250"
         style="stroke-width:0.264583" /><path
         d="m 184.19953,89.517933 a 2.8423261,2.8423261 0 0 0 -4.19696,-1.17517 l -25.25971,-5.66927 -0.31396,6.17324 24.92819,3.63156 a 2.8577407,2.8577407 0 0 0 4.84244,-2.96036 z"
         fill="#ffb8b8"
         id="path1252"
         style="stroke-width:0.264583" /><path
         d="m 159.17173,83.240613 -1.54173,6.24937 a 1.2744662,1.2744662 0 0 1 -1.72058,0.87402 l -5.93792,-2.43351 a 3.5394291,3.5394291 0 0 1 1.71566,-6.86779 l 6.36791,0.60392 a 1.2744635,1.2744635 0 0 1 1.11666,1.57398 z"
         fill="#3fba84"
         id="path1254"
         style="stroke-width:0.264583" /><circle
         cx="181.28154"
         cy="92.570641"
         r="1.8520833"
         fill="#3fba84"
         id="circle1256"
         style="stroke-width:0.264583" /><path
         d="m 263.29979,152.63107 a 0.26539825,0.26539825 0 0 1 -0.26459,0.26458 H 44.224787 a 0.264585,0.264585 0 0 1 0,-0.52917 H 263.0352 a 0.26539825,0.26539825 0 0 1 0.26459,0.26459 z"
         fill="#3f3d56"
         id="path1258"
         style="stroke-width:0.264583" /><path
         d="m 83.250417,58.167053 h -0.78129 v -21.4031 a 12.387527,12.387527 0 0 0 -12.38752,-12.38754 h -45.34539 a 12.387527,12.387527 0 0 0 -12.38755,12.3875 V 154.18303 a 12.387527,12.387527 0 0 0 12.38752,12.38754 h 45.34536 a 12.387527,12.387527 0 0 0 12.38757,-12.38749 V 73.402143 h 0.7813 z"
         fill="#3f3d56"
         id="path1399"
         style="stroke-width:0.264583" /><path
         d="M 79.832237,36.849043 V 154.09723 a 9.248931,9.248931 0 0 1 -9.2523,9.24897 h -45.56366 a 9.2483383,9.2483383 0 0 1 -9.24904,-9.24897 V 36.849043 a 9.2483383,9.2483383 0 0 1 9.24904,-9.24897 h 5.52936 a 4.3970786,4.3970786 0 0 0 4.0702,6.05357 h 25.97717 a 4.3924167,4.3924167 0 0 0 4.07035,-6.05357 h 5.91658 a 9.248931,9.248931 0 0 1 9.2523,9.24897 z"
         fill="#ffffff"
         id="path1401"
         style="stroke-width:0.264583" /><path
         d="m 65.659007,97.777483 h -40.04911 a 2.6488231,2.6488231 0 0 1 -2.64583,-2.64583 v -1.31698 a 2.6488231,2.6488231 0 0 1 2.64583,-2.64583 h 40.04911 a 2.6488231,2.6488231 0 0 1 2.64583,2.64583 v 1.31698 a 2.6488231,2.6488231 0 0 1 -2.64583,2.64583 z"
         fill="#f0f0f0"
         id="path1403"
         style="stroke-width:0.264583" /><path
         d="m 65.659007,109.13002 h -40.04911 a 2.6488231,2.6488231 0 0 1 -2.64583,-2.64584 v -1.31697 a 2.6488231,2.6488231 0 0 1 2.64583,-2.64583 h 40.04911 a 2.6488231,2.6488231 0 0 1 2.64583,2.64583 v 1.31697 a 2.6488231,2.6488231 0 0 1 -2.64583,2.64584 z"
         fill="#f0f0f0"
         id="path1405"
         style="stroke-width:0.264583" /><path
         d="m 67.662377,95.238493 h -40.04911 a 2.7813,2.7813 0 0 1 -2.77812,-2.77813 v -1.31697 a 2.7813,2.7813 0 0 1 2.77812,-2.77813 h 40.04911 a 2.7813,2.7813 0 0 1 2.77812,2.77813 v 1.31697 a 2.7813,2.7813 0 0 1 -2.77812,2.77813 z m -40.04911,-6.34406 a 2.2514745,2.2514745 0 0 0 -2.24896,2.24896 v 1.31697 a 2.2514745,2.2514745 0 0 0 2.24896,2.24896 h 40.04911 a 2.2514745,2.2514745 0 0 0 2.24895,-2.24896 v -1.31697 a 2.2514745,2.2514745 0 0 0 -2.24895,-2.24896 z"
         fill="#3f3d56"
         id="path1407"
         style="stroke-width:0.264583" /><path
         d="m 67.662377,106.59102 h -40.04911 a 2.7813,2.7813 0 0 1 -2.77812,-2.77812 v -1.31697 a 2.7813,2.7813 0 0 1 2.77812,-2.778127 h 40.04911 a 2.7813,2.7813 0 0 1 2.77812,2.778127 v 1.31697 a 2.7813,2.7813 0 0 1 -2.77812,2.77812 z m -40.04911,-6.34405 a 2.2514745,2.2514745 0 0 0 -2.24896,2.24896 v 1.31697 a 2.2514745,2.2514745 0 0 0 2.24896,2.24896 h 40.04911 a 2.2514745,2.2514745 0 0 0 2.24895,-2.24896 v -1.31697 a 2.2514745,2.2514745 0 0 0 -2.24895,-2.24896 z"
         fill="#3f3d56"
         id="path1409"
         style="stroke-width:0.264583" /><path
         d="m 79.832237,36.849043 v 25.50311 a 27.39468,27.39468 0 0 1 -34.36473,-26.47808 q 0,-1.1219 0.0902,-2.22043 h 15.03534 a 4.3924167,4.3924167 0 0 0 4.07035,-6.05357 h 5.91658 a 9.248931,9.248931 0 0 1 9.2523,9.24897 z"
         fill="#f0f0f0"
         id="path1411"
         style="stroke-width:0.264583" /><path
         d="m 38.789557,161.7535 c 0,0.53757 -0.0201,1.06848 -0.0634,1.5927 h -13.70986 a 9.2483383,9.2483383 0 0 1 -9.24904,-9.24897 v -12.5412 a 20.392334,20.392334 0 0 1 23.02231,20.19747 z"
         fill="#3fba84"
         id="path1413"
         style="stroke-width:0.264583" /><rect
         x="199.48473"
         y="-110.08144"
         width="11.175076"
         height="11.175076"
         transform="rotate(37.409781)"
         fill="#f0f0f0"
         id="rect1441"
         style="stroke-width:0.264583" /><path
         d="m 123.60613,15.575803 a 8.9822945,8.9822945 0 0 1 7.88223,1.76081 l 3.37889,-7.8342305 -17.97822,-7.75412 -7.75401,17.9782405 7.74855,3.342 a 8.996627,8.996627 0 0 1 6.72256,-7.4927 z"
         fill="#f0f0f0"
         id="path1443"
         style="stroke-width:0.264583" /><path
         d="m 54.306467,122.81975 h -19.0135 a 2.6488231,2.6488231 0 0 1 -2.64584,-2.64583 v -1.31698 a 2.6488231,2.6488231 0 0 1 2.64584,-2.64583 h 19.0135 a 2.6488231,2.6488231 0 0 1 2.64584,2.64583 v 1.31698 a 2.6488231,2.6488231 0 0 1 -2.64584,2.64583 z"
         fill="#3fba84"
         id="path1447"
         style="stroke-width:0.264583" /><path
         d="m 56.309897,120.28089 h -19.01356 a 2.7813,2.7813 0 0 1 -2.77813,-2.77813 v -1.31697 a 2.7813,2.7813 0 0 1 2.77813,-2.77813 h 19.01356 a 2.7813,2.7813 0 0 1 2.77813,2.77813 v 1.31697 a 2.7813,2.7813 0 0 1 -2.77813,2.77813 z m -19.01356,-6.34406 a 2.2514745,2.2514745 0 0 0 -2.24896,2.24896 v 1.31697 a 2.2514745,2.2514745 0 0 0 2.24896,2.24896 h 19.01356 a 2.2514745,2.2514745 0 0 0 2.24896,-2.24896 v -1.31697 a 2.2514745,2.2514745 0 0 0 -2.24896,-2.24896 z"
         fill="#3f3d56"
         id="path1449"
         style="stroke-width:0.264583" /></g></g></svg>
